<mxfile host="app.diagrams.net" agent="Mozilla/5.0 (Windows NT 10.0; Win64; x64) AppleWebKit/537.36 (KHTML, like Gecko) Chrome/131.0.0.0 Safari/537.36 Edg/131.0.0.0" version="25.0.3">
  <diagram id="C5RBs43oDa-KdzZeNtuy" name="Page-1">
    <mxGraphModel dx="1554" dy="398" grid="1" gridSize="10" guides="1" tooltips="1" connect="1" arrows="1" fold="1" page="1" pageScale="1" pageWidth="827" pageHeight="1169" math="0" shadow="0">
      <root>
        <mxCell id="WIyWlLk6GJQsqaUBKTNV-0" />
        <mxCell id="WIyWlLk6GJQsqaUBKTNV-1" parent="WIyWlLk6GJQsqaUBKTNV-0" />
        <mxCell id="mvioNwK95yMqdUQ73LqQ-36" value="" style="swimlane;fontFamily=Sarabun;fontSource=https%3A%2F%2Ffonts.googleapis.com%2Fcss%3Ffamily%3DSarabun;" parent="WIyWlLk6GJQsqaUBKTNV-1" vertex="1">
          <mxGeometry x="-741" y="60" width="640" height="1670" as="geometry" />
        </mxCell>
        <mxCell id="pXdczCPLqUhGzNIIeVMN-3" style="edgeStyle=orthogonalEdgeStyle;rounded=0;orthogonalLoop=1;jettySize=auto;html=1;" parent="mvioNwK95yMqdUQ73LqQ-36" source="mvioNwK95yMqdUQ73LqQ-35" edge="1">
          <mxGeometry relative="1" as="geometry">
            <mxPoint x="320" y="130" as="targetPoint" />
          </mxGeometry>
        </mxCell>
        <mxCell id="mvioNwK95yMqdUQ73LqQ-35" value="&lt;font data-font-src=&quot;https://fonts.googleapis.com/css?family=Sarabun&quot; face=&quot;Sarabun&quot;&gt;Start&lt;/font&gt;" style="ellipse;whiteSpace=wrap;html=1;" parent="mvioNwK95yMqdUQ73LqQ-36" vertex="1">
          <mxGeometry x="255" y="40" width="130" height="30" as="geometry" />
        </mxCell>
        <mxCell id="vKQV-mVxCTe_bCzBeHUX-2" style="edgeStyle=orthogonalEdgeStyle;rounded=0;orthogonalLoop=1;jettySize=auto;html=1;" edge="1" parent="mvioNwK95yMqdUQ73LqQ-36" source="vKQV-mVxCTe_bCzBeHUX-0">
          <mxGeometry relative="1" as="geometry">
            <mxPoint x="320" y="270" as="targetPoint" />
          </mxGeometry>
        </mxCell>
        <mxCell id="vKQV-mVxCTe_bCzBeHUX-0" value="Read name1&lt;div&gt;age1&lt;/div&gt;" style="shape=parallelogram;perimeter=parallelogramPerimeter;whiteSpace=wrap;html=1;fixedSize=1;" vertex="1" parent="mvioNwK95yMqdUQ73LqQ-36">
          <mxGeometry x="260" y="130" width="120" height="60" as="geometry" />
        </mxCell>
        <mxCell id="vKQV-mVxCTe_bCzBeHUX-3" style="edgeStyle=orthogonalEdgeStyle;rounded=0;orthogonalLoop=1;jettySize=auto;html=1;" edge="1" parent="mvioNwK95yMqdUQ73LqQ-36" source="vKQV-mVxCTe_bCzBeHUX-1">
          <mxGeometry relative="1" as="geometry">
            <mxPoint x="315" y="410" as="targetPoint" />
          </mxGeometry>
        </mxCell>
        <mxCell id="vKQV-mVxCTe_bCzBeHUX-1" value="Read name2&lt;div&gt;age2&lt;/div&gt;" style="shape=parallelogram;perimeter=parallelogramPerimeter;whiteSpace=wrap;html=1;fixedSize=1;" vertex="1" parent="mvioNwK95yMqdUQ73LqQ-36">
          <mxGeometry x="255" y="270" width="120" height="60" as="geometry" />
        </mxCell>
        <mxCell id="vKQV-mVxCTe_bCzBeHUX-5" style="edgeStyle=orthogonalEdgeStyle;rounded=0;orthogonalLoop=1;jettySize=auto;html=1;" edge="1" parent="mvioNwK95yMqdUQ73LqQ-36" source="vKQV-mVxCTe_bCzBeHUX-4">
          <mxGeometry relative="1" as="geometry">
            <mxPoint x="315" y="530" as="targetPoint" />
          </mxGeometry>
        </mxCell>
        <mxCell id="vKQV-mVxCTe_bCzBeHUX-4" value="Display result name and age before swap" style="shape=parallelogram;perimeter=parallelogramPerimeter;whiteSpace=wrap;html=1;fixedSize=1;" vertex="1" parent="mvioNwK95yMqdUQ73LqQ-36">
          <mxGeometry x="230" y="410" width="170" height="70" as="geometry" />
        </mxCell>
        <mxCell id="vKQV-mVxCTe_bCzBeHUX-15" style="edgeStyle=orthogonalEdgeStyle;rounded=0;orthogonalLoop=1;jettySize=auto;html=1;" edge="1" parent="mvioNwK95yMqdUQ73LqQ-36" source="vKQV-mVxCTe_bCzBeHUX-8">
          <mxGeometry relative="1" as="geometry">
            <mxPoint x="315" y="690" as="targetPoint" />
          </mxGeometry>
        </mxCell>
        <mxCell id="vKQV-mVxCTe_bCzBeHUX-8" value="swap_age(age1,age2)" style="shape=process;whiteSpace=wrap;html=1;backgroundOutline=1;" vertex="1" parent="mvioNwK95yMqdUQ73LqQ-36">
          <mxGeometry x="235" y="530" width="160" height="60" as="geometry" />
        </mxCell>
        <mxCell id="vKQV-mVxCTe_bCzBeHUX-10" style="edgeStyle=orthogonalEdgeStyle;rounded=0;orthogonalLoop=1;jettySize=auto;html=1;" edge="1" parent="mvioNwK95yMqdUQ73LqQ-36" source="vKQV-mVxCTe_bCzBeHUX-9">
          <mxGeometry relative="1" as="geometry">
            <mxPoint x="545" y="120" as="targetPoint" />
          </mxGeometry>
        </mxCell>
        <mxCell id="vKQV-mVxCTe_bCzBeHUX-9" value="swap_age()" style="ellipse;whiteSpace=wrap;html=1;" vertex="1" parent="mvioNwK95yMqdUQ73LqQ-36">
          <mxGeometry x="480" y="40" width="130" height="30" as="geometry" />
        </mxCell>
        <mxCell id="vKQV-mVxCTe_bCzBeHUX-12" style="edgeStyle=orthogonalEdgeStyle;rounded=0;orthogonalLoop=1;jettySize=auto;html=1;" edge="1" parent="mvioNwK95yMqdUQ73LqQ-36" source="vKQV-mVxCTe_bCzBeHUX-11">
          <mxGeometry relative="1" as="geometry">
            <mxPoint x="545" y="250" as="targetPoint" />
          </mxGeometry>
        </mxCell>
        <mxCell id="vKQV-mVxCTe_bCzBeHUX-11" value="age1 store in temp&lt;div&gt;then age2 store age1 after that temp store in age2&lt;/div&gt;" style="rounded=0;whiteSpace=wrap;html=1;" vertex="1" parent="mvioNwK95yMqdUQ73LqQ-36">
          <mxGeometry x="485" y="120" width="120" height="60" as="geometry" />
        </mxCell>
        <mxCell id="vKQV-mVxCTe_bCzBeHUX-13" value="&lt;font data-font-src=&quot;https://fonts.googleapis.com/css?family=Sarabun&quot; face=&quot;Sarabun&quot;&gt;Return&lt;/font&gt;" style="ellipse;whiteSpace=wrap;html=1;" vertex="1" parent="mvioNwK95yMqdUQ73LqQ-36">
          <mxGeometry x="480" y="250" width="130" height="30" as="geometry" />
        </mxCell>
        <mxCell id="vKQV-mVxCTe_bCzBeHUX-16" style="edgeStyle=orthogonalEdgeStyle;rounded=0;orthogonalLoop=1;jettySize=auto;html=1;" edge="1" parent="mvioNwK95yMqdUQ73LqQ-36" source="vKQV-mVxCTe_bCzBeHUX-14">
          <mxGeometry relative="1" as="geometry">
            <mxPoint x="315" y="830" as="targetPoint" />
          </mxGeometry>
        </mxCell>
        <mxCell id="vKQV-mVxCTe_bCzBeHUX-14" value="Display result name and age after swap" style="shape=parallelogram;perimeter=parallelogramPerimeter;whiteSpace=wrap;html=1;fixedSize=1;" vertex="1" parent="mvioNwK95yMqdUQ73LqQ-36">
          <mxGeometry x="230" y="690" width="170" height="70" as="geometry" />
        </mxCell>
        <mxCell id="vKQV-mVxCTe_bCzBeHUX-17" value="&lt;font data-font-src=&quot;https://fonts.googleapis.com/css?family=Sarabun&quot; face=&quot;Sarabun&quot;&gt;End&lt;/font&gt;" style="ellipse;whiteSpace=wrap;html=1;" vertex="1" parent="mvioNwK95yMqdUQ73LqQ-36">
          <mxGeometry x="250" y="830" width="130" height="30" as="geometry" />
        </mxCell>
      </root>
    </mxGraphModel>
  </diagram>
</mxfile>
